<svg width="700" height="140" viewBox="0 0 700 140" fill="none" xmlns="http://www.w3.org/2000/svg" role="img" aria-labelledby="title desc">
  <title id="title">The Swing Trading Lab Platform</title>
  <desc id="desc">STLP trading lab logo with flask, candlesticks, and upward trend arrow.</desc>
  <rect width="700" height="140" fill="none"/>
  <g transform="translate(16 12)">
    <path d="M59 10h48M73 10v38L33 101c-8 11 0 27 14 27h72c14 0 22-16 14-27L93 48V10" stroke="#071722" stroke-width="11" stroke-linecap="round" stroke-linejoin="round"/>
    <path d="M50 94c21 9 48 9 70 0" stroke="#0B8F87" stroke-width="14" stroke-linecap="round"/>
    <path d="M43 84c33 1 69-15 92-49" stroke="#C99A22" stroke-width="8" stroke-linecap="round"/>
    <path d="M135 35l-2 24-19-14 21-10z" fill="#C99A22"/>
    <g fill="#0B8F87">
      <rect x="63" y="58" width="10" height="21" rx="2"/>
      <rect x="82" y="49" width="10" height="27" rx="2"/>
      <rect x="101" y="38" width="10" height="31" rx="2"/>
      <rect x="120" y="28" width="10" height="31" rx="2"/>
    </g>
    <g stroke="#0B8F87" stroke-width="4" stroke-linecap="round">
      <path d="M68 53v31M87 43v38M106 32v42M125 21v43"/>
    </g>
  </g>
  <text x="178" y="58" fill="#071722" font-family="Arial, Helvetica, sans-serif" font-size="38" font-weight="800" letter-spacing="0">The Swing Trading</text>
  <text x="178" y="102" fill="#0B8F87" font-family="Arial, Helvetica, sans-serif" font-size="34" font-weight="800" letter-spacing="0">Lab Platform</text>
  <path d="M179 116h356" stroke="#C99A22" stroke-width="5" stroke-linecap="round"/>
</svg>
